# 3ds Max Wavefront OBJ Exporter v0.97b - (c)2007 guruware
# File Created: 25.01.2014 16:08:35

#
# object Cylinder001
#

v  2.1414 1.3394 -0.1413
v  0.6055 1.4106 -1.8883
v  -0.8192 3.3695 -1.5979
v  -1.6276 3.2566 0.3951
v  -0.3158 3.6706 1.2214
v  -0.5234 4.8652 1.7406
v  -0.5174 1.1800 -1.7175
v  -1.5499 3.9206 -0.5613
v  -1.2493 3.5029 -1.4800
v  2.4442 5.9584 -0.0932
v  1.9249 5.8480 1.2969
v  0.1122 -0.0068 2.5060
v  1.8959 1.2579 0.4405
v  1.3279 2.7701 -0.1950
v  1.4599 2.9118 -0.7120
v  -1.3007 1.0991 -1.5483
v  -1.8966 1.3947 -1.3036
v  -1.2334 2.6136 -0.9029
v  1.2270 2.4022 0.8202
v  -2.3577 0.2534 -0.2618
v  -2.2241 -0.1009 1.3122
v  -0.7026 2.2958 1.2740
v  -0.7923 5.7370 2.0762
v  0.5345 3.5520 0.9636
v  1.7957 5.1171 -0.3712
v  1.2416 3.9930 -0.4845
v  0.2845 5.8673 -1.8387
v  1.0340 6.1380 -2.0466
v  -1.2408 -0.0347 -2.2488
v  -2.3480 0.0872 -1.9735
v  -1.5946 2.0624 0.5547
v  -1.1432 4.6966 -1.3263
v  -1.6865 6.2623 0.1916
v  -1.8303 6.1205 -1.0882
v  0.6699 3.9177 -1.3149
v  -1.0767 5.9002 -1.5467
v  -0.4321 1.2725 2.0194
v  -0.7754 0.3209 2.6714
v  1.4697 6.3163 -1.4520
v  0.6394 -0.1336 -2.5280
v  2.7539 -0.1727 0.1785
v  1.5677 0.0363 -1.7458
v  1.0963 4.0890 -0.9653
v  -1.6788 5.7682 0.9433
v  -1.2921 5.5849 1.6248
v  -0.4912 2.2141 -1.6996
v  0.5829 6.1369 2.1145
v  1.6916 -0.1416 1.5399
v  2.5445 -0.0781 0.9870
v  1.0642 3.7900 0.0037
v  -2.7233 -0.1748 -1.1831
v  -0.1577 6.1494 2.4091
v  -0.2482 0.1352 -2.3626
v  1.3150 0.1466 -2.6392
v  -1.6857 -0.2154 2.1780
# 55 vertices

vn 0.6813 0.4525 -0.5753
vn -0.3978 -0.3421 0.8513
vn -0.9578 -0.2204 -0.1847
vn 0.7581 -0.6137 0.2206
vn 0.5151 0.3991 0.7585
vn 0.3230 -0.1549 -0.9336
vn -0.1815 0.3155 -0.9314
vn 0.9218 -0.3783 -0.0843
vn -0.8772 0.4363 0.2005
vn -0.9741 0.2022 0.1011
vn 0.8541 -0.5195 0.0253
vn -0.0121 -0.4942 -0.8693
vn -0.1666 0.4039 -0.8995
vn -0.6101 -0.0768 0.7886
vn -0.9179 -0.3653 0.1551
vn 0.1733 0.0292 -0.9844
vn -0.2401 0.3134 -0.9188
vn 0.2971 0.3834 0.8745
vn 0.7326 -0.2803 -0.6202
vn 0.3091 0.1312 0.9419
vn -0.3272 0.4145 0.8492
vn -0.2383 0.2831 -0.9290
vn 0.8032 0.4027 -0.4390
vn 0.9877 0.0792 0.1351
vn 0.9426 0.2509 -0.2206
vn 0.3039 -0.2684 0.9141
vn -0.8710 -0.2961 0.3921
vn -0.8841 0.2151 -0.4148
vn 0.8191 0.3944 0.4165
vn -0.7396 0.4432 -0.5065
vn -0.9691 0.2425 0.0456
vn -0.5433 -0.0956 -0.8340
vn -0.1545 0.0164 -0.9879
vn -0.1125 -0.1408 -0.9836
vn -0.5920 0.3021 0.7472
vn -0.8827 0.1070 -0.4576
vn -0.1344 0.0382 -0.9902
vn 0.3750 -0.4410 0.8154
vn 0.4194 0.5437 0.7270
vn 0.7481 0.1289 -0.6510
vn 0.3317 0.3566 0.8734
vn 0.8740 -0.2895 0.3903
vn 0.7872 -0.2584 -0.5599
vn -0.9441 0.2259 0.2399
vn 0.7844 0.3162 0.5335
vn 0.4916 0.1473 0.8583
vn 0.8624 0.3667 0.3491
vn 0.5174 0.2815 -0.8082
vn -0.6397 0.0660 0.7658
vn -0.9867 -0.0043 0.1623
vn -0.2033 -0.4122 -0.8881
vn -0.2107 -0.3269 0.9213
vn -0.3873 -0.3490 0.8533
vn -0.5696 0.1489 0.8084
vn 0.2845 -0.0338 0.9581
vn -0.1899 0.3952 -0.8988
vn -0.9936 -0.0911 -0.0668
vn -0.7662 -0.0137 -0.6425
vn -0.9687 -0.1411 -0.2044
vn 0.5750 0.8175 -0.0331
vn -0.6952 0.4993 0.5171
vn -0.6712 0.4870 0.5588
vn -0.7905 -0.0531 -0.6102
vn -0.2209 0.1125 -0.9688
vn 0.8255 -0.1967 -0.5291
vn 0.5087 0.4066 0.7589
vn 0.9017 0.1465 0.4068
vn 0.9572 -0.0008 -0.2895
vn 0.6842 -0.2224 -0.6946
vn 0.9265 0.3239 0.1913
vn -0.8598 0.4653 -0.2103
vn -0.2851 0.2493 -0.9255
vn 0.2939 -0.2509 -0.9223
vn 0.6930 0.6063 0.3902
vn 0.0830 0.5962 -0.7985
vn 0.0155 0.5589 -0.8291
vn 0.9206 -0.3646 0.1399
vn 0.8408 0.2871 0.4588
vn -0.3562 -0.6470 0.6742
vn -0.2421 0.0179 -0.9701
vn -0.2613 0.0084 -0.9652
vn 0.3283 -0.4167 0.8477
# 82 vertex normals

vt 0.6944 0.2000 1.0000
vt 0.8611 0.2000 1.0000
vt 0.8611 0.6000 1.0000
vt 0.1389 0.6000 1.0000
vt 0.3056 0.6000 1.0000
vt 0.2500 0.8000 1.0000
vt 0.9722 0.2000 1.0000
vt 1.0278 0.6000 1.0000
vt 0.9167 0.6000 1.0000
vt 0.4722 1.0000 1.0000
vt 0.3611 1.0000 1.0000
vt 0.5278 0.0000 1.0000
vt 0.6389 0.2000 1.0000
vt 0.6389 0.4000 1.0000
vt 0.6944 0.4000 1.0000
vt 0.0278 0.2000 1.0000
vt 0.0833 0.2000 1.0000
vt 0.0278 0.4000 1.0000
vt 0.5278 0.4000 1.0000
vt 0.2500 0.0000 1.0000
vt 0.3611 0.0000 1.0000
vt 0.3056 0.4000 1.0000
vt 0.1389 1.0000 1.0000
vt 0.0278 0.6000 1.0000
vt 0.4167 0.6000 1.0000
vt 0.5278 0.8000 1.0000
vt 0.5833 0.6000 1.0000
vt 0.6944 1.0000 1.0000
vt 0.6389 1.0000 1.0000
vt 0.0833 0.0000 1.0000
vt 0.1389 0.0000 1.0000
vt 0.1944 0.4000 1.0000
vt 0.8611 0.8000 1.0000
vt 0.9722 1.0000 1.0000
vt 0.8611 1.0000 1.0000
vt 0.6944 0.6000 1.0000
vt 0.8056 1.0000 1.0000
vt 1.0278 0.2000 1.0000
vt 1.0278 0.4000 1.0000
vt 0.4167 0.2000 1.0000
vt 0.4722 0.0000 1.0000
vt 0.5833 1.0000 1.0000
vt 0.9722 0.0000 1.0000
vt 0.7500 0.0000 1.0000
vt 0.8611 0.0000 1.0000
vt 0.6389 0.6000 1.0000
vt 0.0278 1.0000 1.0000
vt 0.0833 1.0000 1.0000
vt 1.0278 1.0000 1.0000
vt 0.9167 0.4000 1.0000
vt 0.2500 1.0000 1.0000
vt 0.6389 0.0000 1.0000
vt 0.6944 0.0000 1.0000
vt 0.5278 0.6000 1.0000
vt 0.1944 0.0000 1.0000
vt 0.1944 1.0000 1.0000
vt 0.0278 0.0000 1.0000
vt 0.9167 0.0000 1.0000
vt 0.4167 0.0000 1.0000
vt 1.0278 0.0000 1.0000
# 60 texture coords

g Cylinder001
s off
f 1/1/1 2/2/1 3/3/1 
f 4/4/2 5/5/2 6/6/2 
f 7/7/3 8/8/3 9/9/3 
f 5/5/4 10/10/4 11/11/4 
f 12/12/5 13/13/5 14/14/5 
f 1/1/6 3/3/6 15/15/6 
f 16/16/7 17/17/7 18/18/7 
f 12/12/8 14/14/8 19/19/8 
f 20/20/9 21/21/9 22/22/9 
f 4/4/10 23/23/10 8/24/10 
f 24/25/11 25/26/11 10/10/11 
f 26/27/12 27/28/12 28/29/12 
f 29/30/13 30/31/13 17/17/13 
f 31/32/14 20/20/14 22/22/14 
f 32/33/15 33/34/15 34/35/15 
f 35/36/16 3/3/16 36/37/16 
f 7/7/17 16/38/17 18/39/17 
f 37/40/18 38/41/18 19/19/18 
f 25/26/19 39/42/19 10/10/19 
f 5/5/20 24/25/20 10/10/20 
f 37/40/21 24/25/21 22/22/21 
f 40/43/22 16/38/22 7/7/22 
f 41/44/23 42/45/23 2/2/23 
f 19/19/24 14/14/24 26/27/24 
f 26/27/25 43/46/25 27/28/25 
f 6/6/26 5/5/26 11/11/26 
f 44/47/27 8/24/27 45/48/27 
f 9/9/28 8/8/28 44/49/28 
f 13/13/29 1/1/29 15/15/29 
f 17/17/30 4/4/30 18/18/30 
f 30/31/31 31/32/31 17/17/31 
f 36/37/32 32/33/32 34/35/32 
f 2/2/33 7/7/33 46/50/33 
f 42/45/34 7/7/34 2/2/34 
f 21/21/35 37/40/35 22/22/35 
f 9/9/36 33/34/36 32/33/36 
f 2/2/37 46/50/37 3/3/37 
f 6/6/38 11/11/38 47/51/38 
f 48/52/39 49/53/39 1/1/39 
f 41/44/40 2/2/40 1/1/40 
f 38/41/41 12/12/41 19/19/41 
f 24/25/42 50/54/42 25/26/42 
f 25/26/43 26/27/43 28/29/43 
f 51/55/44 20/20/44 31/32/44 
f 24/25/45 19/19/45 50/54/45 
f 37/40/46 19/19/46 24/25/46 
f 13/13/47 15/15/47 14/14/47 
f 35/36/48 36/37/48 43/46/48 
f 31/32/49 22/22/49 4/4/49 
f 17/17/50 31/32/50 4/4/50 
f 43/46/51 36/37/51 27/28/51 
f 23/23/52 6/6/52 52/56/52 
f 4/4/53 6/6/53 23/23/53 
f 22/22/54 5/5/54 4/4/54 
f 22/22/55 24/25/55 5/5/55 
f 53/57/56 29/30/56 17/17/56 
f 9/9/57 44/49/57 33/34/57 
f 7/7/58 18/39/58 8/8/58 
f 18/18/59 4/4/59 8/24/59 
f 42/45/60 54/58/60 7/7/60 
f 21/21/61 55/59/61 37/40/61 
f 55/59/62 38/41/62 37/40/62 
f 3/3/63 32/33/63 36/37/63 
f 3/3/64 9/9/64 32/33/64 
f 25/26/65 28/29/65 39/42/65 
f 12/12/66 48/52/66 13/13/66 
f 48/52/67 1/1/67 13/13/67 
f 14/14/68 43/46/68 26/27/68 
f 14/14/69 35/36/69 43/46/69 
f 49/53/70 41/44/70 1/1/70 
f 30/31/71 51/55/71 31/32/71 
f 54/58/72 40/43/72 7/7/72 
f 15/15/73 3/3/73 35/36/73 
f 14/14/74 15/15/74 35/36/74 
f 40/43/75 53/60/75 16/38/75 
f 53/57/76 17/17/76 16/16/76 
f 50/54/77 26/27/77 25/26/77 
f 19/19/78 26/27/78 50/54/78 
f 8/24/79 23/23/79 45/48/79 
f 46/50/80 7/7/80 9/9/80 
f 46/50/81 9/9/81 3/3/81 
f 6/6/82 47/51/82 52/56/82 
# 0 polygons - 82 triangles

