# 3ds Max Wavefront OBJ Exporter v0.97b - (c)2007 guruware
# File Created: 25.01.2014 18:32:53

#
# object Hedra001
#

v  2.9516 4.5839 0.4417
v  3.3406 4.4210 0.6514
v  3.3638 4.4283 0.2504
v  0.9463 1.1835 -0.6691
v  1.2376 -0.2915 -1.4687
v  0.5841 0.0950 -2.4828
v  -0.8946 0.7963 -5.3651
v  -1.1252 0.4699 -5.2167
v  -1.3054 0.8756 -5.3254
v  -0.8578 0.0904 -1.5380
v  -2.0726 -0.2691 -0.8026
v  -1.2473 1.2087 -0.5907
v  -3.4955 4.3588 0.2591
v  -3.4729 4.3836 0.6603
v  -3.4131 4.4639 0.5274
v  -3.3257 2.1012 4.0648
v  -3.4276 1.7997 4.2384
v  -3.0151 1.8637 4.4579
v  -0.9478 0.0126 2.4254
v  0.2258 -0.6061 2.0941
v  0.6097 0.1213 1.4658
v  1.4999 -0.3416 1.3413
v  0.9964 1.1931 0.6300
v  1.9600 -1.0731 0.4435
v  1.7277 -2.3687 -2.0088
v  1.5644 -2.3559 2.3273
v  -0.0705 -0.6290 2.2779
v  0.7182 -4.0239 1.7629
v  0.9444 -3.4962 1.9134
v  0.9300 -2.8237 -0.2068
v  0.6313 -3.9394 -3.1556
v  0.0372 -2.7402 0.4843
v  -1.8274 -1.1201 2.5243
v  -0.3201 -1.1985 0.2547
v  -1.0003 -2.3205 -0.2647
v  -0.9228 -2.3185 -1.4005
v  0.0367 -1.6668 -3.1671
v  -2.1434 -1.6645 -0.7609
v  -2.1161 -0.3169 2.6290
v  -2.4613 -1.0147 0.3169
v  1.3792 6.2556 -2.9166
v  0.7457 6.2101 -2.9170
v  1.1287 6.3647 -2.6318
v  -1.2147 1.1486 0.7878
v  -0.1846 2.3403 -0.2594
v  3.0045 1.0390 0.5189
v  4.5188 1.6800 0.0407
v  2.8905 1.0691 0.1179
v  3.8109 -1.1543 3.2594
v  4.1000 -1.6739 3.1731
v  4.3237 -1.2820 3.1564
v  1.4657 5.9441 -3.2599
v  1.0824 6.0398 -3.1329
v  4.4779 1.8493 0.6894
v  4.6842 1.5297 0.3747
v  3.6180 -1.4700 3.2969
v  3.8443 -1.7965 3.2581
# 57 vertices

vn 0.3685 0.9288 0.0384
vn 0.8369 0.3792 -0.3947
vn -0.1519 -0.3181 -0.9358
vn -0.5579 0.4147 -0.7189
vn -0.7960 0.6052 0.0074
vn -0.4563 0.5548 0.6957
vn 0.4499 0.4358 0.7795
vn 0.3644 0.4873 0.7935
vn 0.9301 0.2810 -0.2366
vn 0.9278 0.1876 0.3226
vn 0.5275 -0.0063 0.8495
vn 0.5593 -0.0032 -0.8290
vn 0.7466 -0.6437 0.1679
vn -0.3062 -0.9080 -0.2859
vn 0.2915 -0.9296 0.2257
vn -0.5896 -0.0164 0.8075
vn -0.8218 -0.2177 -0.5266
vn -0.4861 -0.8732 -0.0347
vn -0.9026 -0.3560 0.2422
vn -0.9517 0.0391 -0.3044
vn -0.0653 0.9114 -0.4064
vn 0.0420 0.6388 0.7682
vn -0.3395 0.9259 0.1660
vn 0.1818 -0.0618 0.9814
vn 0.9690 -0.2442 0.0372
vn 0.7129 -0.1079 -0.6929
vn 0.1714 -0.9271 0.3334
vn -0.4568 -0.1304 0.8799
vn -0.5995 -0.5883 -0.5426
vn -0.8741 0.4854 0.0197
vn 0.2056 -0.1296 0.9700
vn 0.5608 0.1426 -0.8156
vn -0.3771 0.2484 0.8922
vn 0.8085 -0.5874 0.0361
vn -0.2426 0.4276 -0.8708
vn 0.6074 -0.6420 -0.4678
vn -0.9185 -0.3725 0.1324
vn 0.2030 0.9633 0.1757
vn -0.8007 -0.5935 0.0818
vn 0.6544 0.4799 0.5843
vn 0.4163 0.7958 -0.4397
vn -0.8436 -0.0239 -0.5365
vn -0.2589 -0.6811 0.6848
vn 0.6418 0.7656 -0.0445
vn 0.9734 0.0182 0.2286
vn -0.3304 -0.0752 -0.9408
vn -0.5544 -0.0420 -0.8312
vn -0.6353 0.5191 0.5718
vn 0.7678 0.1204 0.6293
vn -0.0331 0.2632 -0.9642
vn 0.4854 -0.4341 0.7589
vn 0.5675 -0.6085 -0.5547
vn -0.3404 0.8591 -0.3821
vn 0.0321 0.9973 0.0657
vn -0.3607 0.3243 0.8745
vn -0.3929 -0.3723 0.8408
vn 0.4839 -0.8412 0.2415
vn 0.3658 -0.2472 -0.8973
vn 0.2586 0.9612 0.0958
vn -0.0409 0.7347 -0.6772
vn -0.0530 0.7422 -0.6681
vn 0.2639 0.8121 0.5204
vn 0.0446 0.6043 0.7955
vn -0.2403 0.5980 -0.7646
vn -0.2067 0.8499 0.4846
vn 0.1793 0.0073 0.9838
vn 0.3092 0.0142 0.9509
vn 0.8903 -0.4322 -0.1431
vn 0.5333 -0.8456 0.0226
vn -0.9502 -0.2492 0.1873
vn -0.8667 -0.1291 0.4819
vn -0.3587 -0.9331 -0.0261
vn -0.6282 -0.7637 0.1491
vn -0.0862 -0.9960 -0.0228
vn -0.0594 -0.8626 0.5024
vn -0.5180 0.0007 -0.8554
vn -0.7196 0.2383 -0.6522
vn -0.8641 0.5029 -0.0228
vn -0.8696 0.4920 0.0420
vn 0.1581 -0.0715 0.9848
vn 0.2093 0.8704 0.4456
vn 0.8484 0.3115 -0.4280
vn 0.6159 0.1366 -0.7759
vn -0.3908 0.2780 0.8775
vn 0.8052 -0.5924 -0.0267
vn -0.0167 0.3193 -0.9475
vn 0.8433 -0.0543 -0.5347
vn -0.8876 -0.4606 0.0094
vn 0.1143 0.9772 0.1791
vn -0.8199 -0.5725 -0.0056
vn 0.4341 0.3530 0.8288
vn 0.0134 0.2694 -0.9629
vn -0.8456 -0.1303 -0.5177
vn 0.2902 -0.5419 0.7887
vn 0.7378 0.6050 0.2994
vn 0.9819 -0.1612 -0.0993
vn -0.5474 -0.0455 -0.8357
vn -0.8633 0.1155 -0.4913
vn -0.7030 0.5172 0.4882
vn 0.5742 0.2902 0.7655
vn -0.0899 0.3944 0.9145
vn 0.5124 -0.5182 0.6848
vn 0.6034 -0.6320 -0.4863
vn 0.3503 0.4989 -0.7927
vn 0.0759 0.9971 -0.0103
vn -0.0867 0.6770 0.7309
vn -0.3445 -0.1396 0.9283
vn 0.2657 0.1853 -0.9461
vn 0.4014 -0.3923 -0.8277
vn 0.4389 0.8853 -0.1536
# 110 vertex normals

vt 0.0000 0.0000 0.5000
vt 0.2500 -0.1545 0.4045
vt 0.2500 0.1545 0.4045
vt 0.4045 0.2500 0.1545
vt 0.1545 0.4045 0.2500
vt -0.0000 -0.0000 0.5000
vt 0.1545 -0.4045 0.2500
vt 0.4045 -0.2500 0.1545
vt -0.2500 0.1545 0.4045
vt -0.2500 -0.1545 0.4045
vt 0.4045 -0.2500 -0.1545
vt 0.1545 -0.4045 -0.2500
vt 0.2500 -0.1545 -0.4045
vt 0.0000 0.0000 -0.5000
vt 0.2500 0.1545 -0.4045
vt 0.1545 0.4045 -0.2500
vt 0.4045 0.2500 -0.1545
vt -0.0000 0.0000 0.5000
vt -0.2500 -0.1545 -0.4045
vt -0.2500 0.1545 -0.4045
vt -0.4045 -0.2500 0.1545
vt -0.1545 -0.4045 0.2500
vt 0.0000 -0.0000 -0.5000
vt -0.1545 -0.4045 -0.2500
vt -0.4045 -0.2500 -0.1545
vt -0.1545 0.4045 0.2500
vt -0.1545 0.4045 -0.2500
# 27 texture coords

g Hedra001
s off
f 1/1/1 2/2/1 3/3/1 
f 4/4/2 5/5/2 6/3/2 
f 7/3/3 8/6/3 9/2/3 
f 10/2/4 11/7/4 12/8/4 
f 13/9/5 14/10/5 15/1/5 
f 16/11/6 17/12/6 18/13/6 
f 19/13/7 20/14/7 21/15/7 
f 21/15/8 22/16/8 23/17/8 
f 24/18/9 25/2/9 5/3/9 
f 22/9/10 26/10/10 24/18/10 
f 20/14/11 27/19/11 28/20/11 
f 28/21/12 29/22/12 26/10/12 
f 30/15/13 31/16/13 25/17/13 
f 29/13/14 32/23/14 30/15/14 
f 27/19/15 33/24/15 34/25/15 
f 34/19/16 35/20/16 32/23/16 
f 36/10/17 37/6/17 31/9/17 
f 35/21/18 38/22/18 36/10/18 
f 33/19/19 39/20/19 40/23/19 
f 40/23/20 11/15/20 38/13/20 
f 41/3/21 42/9/21 43/1/21 
f 44/10/22 23/2/22 45/1/22 
f 46/26/23 47/3/23 48/5/23 
f 49/15/24 50/27/24 51/16/24 
f 26/10/25 25/2/25 24/18/25 
f 28/12/26 34/19/26 29/13/26 
f 32/23/27 31/16/27 30/15/27 
f 34/24/28 38/13/28 35/12/28 
f 38/22/29 37/6/29 36/10/29 
f 40/23/30 12/16/30 11/15/30 
f 39/12/31 20/14/31 19/13/31 
f 6/3/32 31/9/32 37/6/32 
f 45/1/33 2/2/33 1/1/33 
f 23/2/34 3/3/34 2/2/34 
f 4/3/35 1/1/35 3/3/35 
f 6/3/36 8/6/36 7/3/36 
f 37/6/37 9/2/37 8/6/37 
f 10/2/38 7/3/38 9/2/38 
f 12/9/39 14/10/39 13/9/39 
f 44/10/40 15/1/40 14/10/40 
f 45/1/41 13/9/41 15/1/41 
f 44/11/42 17/12/42 16/11/42 
f 39/12/43 18/13/43 17/12/43 
f 19/13/44 16/11/44 18/13/44 
f 4/3/45 52/5/45 41/3/45 
f 6/5/46 53/26/46 52/5/46 
f 10/26/47 42/9/47 53/26/47 
f 12/9/48 43/1/48 42/9/48 
f 45/1/49 41/3/49 43/1/49 
f 23/26/50 54/9/50 46/26/50 
f 22/9/51 55/18/51 54/9/51 
f 24/18/52 47/3/52 55/18/52 
f 5/3/53 48/5/53 47/3/53 
f 4/5/54 46/26/54 48/5/54 
f 21/15/55 56/14/55 49/15/55 
f 20/14/56 57/20/56 56/14/56 
f 28/20/57 50/27/57 57/20/57 
f 26/27/58 51/16/58 50/27/58 
f 22/16/59 49/15/59 51/16/59 
f 41/3/60 52/5/60 53/26/60 
f 41/3/61 53/26/61 42/9/61 
f 44/10/62 19/22/62 21/7/62 
f 44/10/63 21/7/63 23/2/63 
f 46/26/64 54/9/64 55/18/64 
f 46/26/65 55/18/65 47/3/65 
f 49/15/66 56/14/66 57/20/66 
f 49/15/67 57/20/67 50/27/67 
f 26/10/68 29/22/68 30/7/68 
f 26/10/69 30/7/69 25/2/69 
f 28/12/70 27/24/70 34/19/70 
f 34/19/71 32/23/71 29/13/71 
f 32/23/72 35/20/72 36/27/72 
f 32/23/73 36/27/73 31/16/73 
f 34/24/74 33/19/74 40/23/74 
f 34/24/75 40/23/75 38/13/75 
f 38/22/76 11/7/76 10/2/76 
f 38/22/77 10/2/77 37/6/77 
f 40/23/78 39/20/78 44/27/78 
f 40/23/79 44/27/79 12/16/79 
f 39/12/80 33/24/80 27/19/80 
f 39/12/81 27/19/81 20/14/81 
f 6/3/82 5/5/82 25/26/82 
f 6/3/83 25/26/83 31/9/83 
f 45/1/84 23/2/84 2/2/84 
f 23/2/85 4/3/85 3/3/85 
f 4/3/86 45/1/86 1/1/86 
f 6/3/87 37/6/87 8/6/87 
f 37/6/88 10/2/88 9/2/88 
f 10/2/89 6/3/89 7/3/89 
f 12/9/90 44/10/90 14/10/90 
f 44/10/91 45/1/91 15/1/91 
f 45/1/92 12/9/92 13/9/92 
f 44/11/93 39/12/93 17/12/93 
f 39/12/94 19/13/94 18/13/94 
f 19/13/95 44/11/95 16/11/95 
f 4/3/96 6/5/96 52/5/96 
f 6/5/97 10/26/97 53/26/97 
f 10/26/98 12/9/98 42/9/98 
f 12/9/99 45/1/99 43/1/99 
f 45/1/100 4/3/100 41/3/100 
f 23/26/101 22/9/101 54/9/101 
f 22/9/102 24/18/102 55/18/102 
f 24/18/103 5/3/103 47/3/103 
f 5/3/104 4/5/104 48/5/104 
f 4/5/105 23/26/105 46/26/105 
f 21/15/106 20/14/106 56/14/106 
f 20/14/107 28/20/107 57/20/107 
f 28/20/108 26/27/108 50/27/108 
f 26/27/109 22/16/109 51/16/109 
f 22/16/110 21/15/110 49/15/110 
# 0 polygons - 110 triangles

